<svg width="18" height="18" viewBox="0 0 18 18" fill="none" xmlns="http://www.w3.org/2000/svg">
<path d="M11.25 4.50001C11.2503 4.67525 11.1893 4.84508 11.0775 4.98001L7.7175 9.00001L10.9575 13.0275C11.0198 13.1042 11.0663 13.1925 11.0944 13.2873C11.1225 13.382 11.1315 13.4814 11.1211 13.5796C11.1106 13.6779 11.0809 13.7732 11.0335 13.8599C10.9861 13.9466 10.922 14.0231 10.845 14.085C10.7683 14.1473 10.68 14.1938 10.5853 14.2219C10.4905 14.25 10.3911 14.2591 10.2929 14.2486C10.1946 14.2381 10.0994 14.2084 10.0126 14.161C9.9259 14.1136 9.84939 14.0496 9.7875 13.9725L6.165 9.47251C6.05469 9.33831 5.99438 9.16998 5.99438 8.99626C5.99438 8.82254 6.05469 8.65421 6.165 8.52001L9.915 4.02001C9.97796 3.94407 10.0553 3.88129 10.1425 3.83528C10.2298 3.78926 10.3253 3.76091 10.4235 3.75186C10.5218 3.7428 10.6208 3.75321 10.715 3.7825C10.8092 3.81178 10.8967 3.85936 10.9725 3.92251C11.0585 3.9923 11.128 4.08028 11.176 4.18014C11.224 4.27999 11.2493 4.38923 11.25 4.50001Z" fill="#3FCF5E"/>
</svg>
