<svg width="30" height="32" viewBox="0 0 30 32" fill="none" xmlns="http://www.w3.org/2000/svg">
<path fill-rule="evenodd" clip-rule="evenodd" d="M3.59729 3.46077L3.47048 3.44712C3.009 3.42975 2.59459 3.76566 2.51364 4.24702L2.50038 4.37755C2.48351 4.85254 2.80986 5.2791 3.27753 5.36241L5.16378 5.6982L6.30694 19.7168L6.3306 19.9275C6.5606 21.526 7.89641 22.7278 9.48741 22.7278H23.1274L23.3328 22.721C24.8282 22.6227 26.0682 21.4587 26.2864 19.9124L27.4727 11.4743L27.4932 11.2805C27.6024 9.73776 26.415 8.3988 24.8862 8.3988H7.26503L6.97162 4.79406L6.94951 4.65143C6.86396 4.28047 6.57098 3.99052 6.19729 3.92395L3.59729 3.46077ZM9.34231 20.7897C8.72322 20.72 8.22811 20.2083 8.17523 19.5558L7.42235 10.3287H24.886L24.9962 10.3371C25.3909 10.3974 25.676 10.7773 25.6169 11.198L24.4306 19.6355L24.4009 19.7864C24.2504 20.3764 23.7311 20.7979 23.1272 20.7979H9.48723L9.34231 20.7897ZM7.38533 26.7154C7.38533 25.6396 8.23242 24.7662 9.27783 24.7662C10.3231 24.7662 11.1716 25.6395 11.1716 26.7154C11.1716 27.7914 10.323 28.6633 9.27783 28.6633C8.23256 28.6633 7.38533 27.7913 7.38533 26.7154ZM21.4497 26.7154C21.4497 25.6395 22.2982 24.7662 23.3435 24.7662C24.3887 24.7662 25.2372 25.6395 25.2372 26.7154C25.2372 27.7914 24.3886 28.6633 23.3435 28.6633C22.2983 28.6633 21.4497 27.7914 21.4497 26.7154ZM22.0604 14.1191C22.0604 13.5861 21.6406 13.1541 21.1229 13.1541H17.6566L17.5294 13.1629C17.0718 13.2268 16.7191 13.6305 16.7191 14.1191C16.7191 14.652 17.1389 15.084 17.6566 15.084H21.1229L21.2501 15.0752C21.7077 15.0113 22.0604 14.6076 22.0604 14.1191Z" fill="#333333"/>
</svg>
