<svg width="27" height="27" viewBox="0 0 27 27" fill="none" xmlns="http://www.w3.org/2000/svg">
<path fill-rule="evenodd" clip-rule="evenodd" d="M3.23757 2.82486L3.12344 2.81293C2.70811 2.79774 2.33513 3.09146 2.26228 3.51236L2.25035 3.62648C2.23517 4.04181 2.52888 4.41479 2.94978 4.48764L4.64741 4.78125L5.67626 17.0389L5.69755 17.2232C5.90455 18.6209 7.10678 19.6717 8.53867 19.6717H20.8147L20.9996 19.6659C22.3454 19.5799 23.4614 18.5621 23.6578 17.21L24.7255 9.83184L24.7439 9.66236C24.8422 8.3134 23.7735 7.14262 22.3975 7.14262H6.53854L6.27447 3.99068L6.25457 3.86597C6.17757 3.5416 5.91389 3.28807 5.57757 3.22986L3.23757 2.82486ZM8.40808 17.9771C7.8509 17.9161 7.40531 17.4687 7.35772 16.8982L6.68012 8.83013H22.3974L22.4966 8.83742C22.8518 8.89023 23.1084 9.22241 23.0552 9.59023L21.9876 16.9679L21.9608 17.0998C21.8254 17.6157 21.358 17.9842 20.8145 17.9842H8.53851L8.40808 17.9771ZM6.6468 23.1585C6.6468 22.2179 7.40919 21.4541 8.35005 21.4541C9.29079 21.4541 10.0544 22.2177 10.0544 23.1585C10.0544 24.0993 9.29067 24.8617 8.35005 24.8617C7.40931 24.8617 6.6468 24.0992 6.6468 23.1585ZM19.3048 23.1585C19.3048 22.2177 20.0684 21.4541 21.0091 21.4541C21.9499 21.4541 22.7135 22.2177 22.7135 23.1585C22.7135 24.0993 21.9497 24.8617 21.0091 24.8617C20.0685 24.8617 19.3048 24.0993 19.3048 23.1585ZM19.8543 12.1444C19.8543 11.6784 19.4766 11.3006 19.0106 11.3006H15.891L15.7765 11.3083C15.3646 11.3642 15.0472 11.7172 15.0472 12.1444C15.0472 12.6104 15.425 12.9881 15.891 12.9881H19.0106L19.1251 12.9804C19.5369 12.9245 19.8543 12.5715 19.8543 12.1444Z" fill="#333333"/>
</svg>
